# xmcd
#
# Track frame offsets:
#	150
#	7493
#	15603
#	23786
#	34894
#	48119
#	58105
#	68471
#	76999
#	83656
#	94355
#	100122
#	109645
#	118145
#	130392
#	135839
#	143252
#	159007
#	173969
#	182118
#	189752
#	196538
#	202820
#	215118
#	223634
#
# Disc length: 3109 seconds
#
# Revision: 1
# Processed by: cddbd v1.5.1PL0 Copyright (c) Steve Scherf et al.
# Submitted via: CDex 1.50Beta5
#
DISCID=460c2319
DTITLE=Various Artist - ベストヒットこどものうた　ビックリ・タマゲタ/クレヨンロケット
DYEAR=2002
DGENRE=Music
TTITLE0=神崎ゆう子/こうえんにいきましょう
TTITLE1=神崎 ゆう子 and 速水 けんたろう/ビックリ・タマゲタ
TTITLE2=神崎 ゆう子 and 速水 けんたろう/リズム君・メロディーちゃん
TTITLE3=春口 雅子 and 速水 けんたろう/ハオハオ
TTITLE4=神崎 ゆう子 and 速水 けんたろう/あ・い・う・え・おにぎり
TTITLE5=春口 雅子 and 速水 けんたろう/ゆめのパレード
TTITLE6=神崎 ゆう子 and 速水 けんたろう/クレヨンロケット
TTITLE7=西村ちなみ・渕崎ゆり子・岩坪理江・生駒治美・三石琴乃&子鬼トリオ/あっちむいてホイでおじゃる
TTITLE8=速水けんたろう/どんどんゴロゴロ
TTITLE9=春口 雅子 and 速水 けんたろう/あめふりりんちゃん
TTITLE10=大和田りつこ&高橋寛/げんこつやまのたぬきさん
TTITLE11=速水けんたろう&神崎ゆう子/バンジョーのジョー
TTITLE12=神崎ゆう子&坂田おさむ/たこやきなんぼマンボ
TTITLE13=ゾウサンズ/パジャマでおじゃま
TTITLE14=春口 雅子 and 速水 けんたろう/すずめがサンバ
TTITLE15=大和田りつこ/いぬのおまわりさん
TTITLE16=神崎 ゆう子 and 速水 けんたろう/せんろはつづくよどこまでも
TTITLE17=戸田ダリオ＆トゥインクル・キッズ/慎吾ママの学園天国〜校門編〜
TTITLE18=春口 雅子 and 速水 けんたろう/わらいかわせみにはなすなよ
TTITLE19=神崎ゆう子&坂田おさむ/スプラッピスプラッパ
TTITLE20=速水けんたろう/ぼくのシャンプー
TTITLE21=しばたかの&高橋寛/おおきなくりのきのしたで
TTITLE22=神崎ゆう子&赤い靴J.コーラスシニア隊/さんぽ
TTITLE23=神崎ゆう子/すてきなことば
TTITLE24=神崎 ゆう子 and 速水 けんたろう/あるこう
EXTD=
EXTT0=
EXTT1=
EXTT2=
EXTT3=
EXTT4=
EXTT5=
EXTT6=
EXTT7=
EXTT8=
EXTT9=
EXTT10=
EXTT11=
EXTT12=
EXTT13=
EXTT14=
EXTT15=
EXTT16=
EXTT17=
EXTT18=
EXTT19=
EXTT20=
EXTT21=
EXTT22=
EXTT23=
EXTT24=
PLAYORDER=
